<svg viewBox="0 0 746 169" xmlns="http://www.w3.org/2000/svg" role="img" aria-label="Renewt3ch wordmark — white" shape-rendering="geometricPrecision">
  <g fill="#ffffff">
    <path d="M336.021 66.172L336.091 66.589L341.713 99.7882L349.127 66.5636L349.213 66.172H370.172L370.261 66.5597L377.951 99.9083L383.489 66.59L383.559 66.172H402.29L402.131 66.795L388.403 120.651L388.307 121.028H366.4L366.311 120.64L359.3 90.0841L352.021 120.644L351.929 121.028H330.122L330.026 120.651L316.394 66.795L316.236 66.172H336.021Z"/>
    <path d="M287.195 65.5C292.576 65.5 297.363 66.6027 301.541 68.8223C305.722 71.0432 308.99 74.2472 311.34 78.4238C313.695 82.5442 314.863 87.4009 314.863 92.9756C314.863 94.4694 314.764 95.9638 314.57 97.457L314.513 97.8916H278.999C279.244 100.493 280.003 102.396 281.217 103.667C282.584 104.968 284.308 105.628 286.426 105.628C287.917 105.628 289.165 105.294 290.192 104.648C291.218 104.003 292.056 103.027 292.695 101.688L292.831 101.404H313.834L313.699 102.014C312.849 105.802 311.181 109.2 308.699 112.204C306.281 115.148 303.209 117.466 299.497 119.159C295.778 120.856 291.675 121.7 287.195 121.7C281.81 121.7 276.991 120.564 272.749 118.28C268.567 115.993 265.268 112.726 262.856 108.487C260.501 104.236 259.334 99.2529 259.334 93.5518C259.334 87.851 260.501 82.8992 262.855 78.7148C265.204 74.4751 268.471 71.2067 272.651 68.9209C276.896 66.6357 281.747 65.5 287.195 65.5ZM287.098 81.3799C284.892 81.3799 283.127 81.9908 281.762 83.1777C280.511 84.2107 279.642 85.7241 279.17 87.7725H294.648C294.545 85.8386 293.833 84.3591 292.538 83.2803C291.096 82.0186 289.297 81.3799 287.098 81.3799Z"/>
    <path d="M232.326 65.692C238.657 65.6921 243.728 67.8194 247.482 72.0992C251.233 76.3104 253.082 82.0095 253.082 89.1363V121.028H233.266V91.6324C233.266 88.6471 232.49 86.3823 230.999 84.7721C229.5 83.0928 227.498 82.2438 224.934 82.2438C222.233 82.2438 220.171 83.0981 218.683 84.7652C217.186 86.3823 216.41 88.647 216.41 91.6324V121.028H196.594V66.1725H216.41V72.8531C218 70.9097 219.995 69.3109 222.391 68.0572L222.938 67.7701C225.705 66.381 228.839 65.692 232.326 65.692Z"/>
    <path d="M162.226 65.5C167.608 65.5 172.395 66.6027 176.573 68.8223C180.753 71.0432 184.021 74.2472 186.371 78.4238C188.726 82.5442 189.894 87.4009 189.894 92.9756C189.894 94.4694 189.796 95.9638 189.601 97.457L189.544 97.8916H154.031C154.275 100.493 155.034 102.396 156.248 103.667C157.615 104.968 159.339 105.628 161.457 105.628C162.949 105.628 164.197 105.294 165.224 104.648C166.25 104.003 167.087 103.026 167.726 101.688L167.863 101.404H188.866C187.881 105.802 186.212 109.2 183.731 112.204C181.312 115.148 178.241 117.466 174.529 119.159C170.809 120.856 166.706 121.7 162.226 121.7C156.842 121.7 152.022 120.564 147.781 118.28C143.598 115.993 140.3 112.726 137.887 108.487C135.532 104.236 134.366 99.2529 134.366 93.5518C134.366 87.851 135.532 82.8992 137.886 78.7148C140.235 74.4751 143.502 71.2067 147.682 68.9209C151.927 66.6357 156.779 65.5 162.226 65.5ZM162.129 81.3799C159.923 81.3799 158.158 81.9908 156.793 83.1777C155.543 84.2107 154.673 85.7241 154.201 87.7725H169.679C169.576 85.8386 168.864 84.3591 167.57 83.2803C166.127 82.0186 164.329 81.3799 162.129 81.3799Z"/>
    <path d="M131.192 86.2564H125.912C121.816 86.2564 118.776 87.0559 116.792 88.6559C114.808 90.2559 113.816 93.0404 113.816 97.0084V120.528H95V66.6725H113.816V76.1764C115.928 73.1044 118.488 70.6725 121.496 68.8805C124.504 67.0885 127.736 66.192 131.192 66.192V86.2564Z"/>
    <path d="M598.384 66.376C604.528 66.376 609.392 68.456 612.976 72.616C616.624 76.712 618.448 82.28 618.448 89.32V120.712H599.632V91.816C599.632 88.744 598.832 86.344 597.232 84.616C595.632 82.824 593.488 81.928 590.8 81.928C587.984 81.928 585.776 82.824 584.176 84.616C582.576 86.344 581.776 88.744 581.776 91.816V120.712H562.96V49.672H581.776V74.536C583.44 72.104 585.68 70.152 588.496 68.68C591.376 67.144 594.672 66.376 598.384 66.376Z"/>
    <path d="M501.576 93.736C501.576 88.168 502.728 83.304 505.032 79.144C507.336 74.984 510.536 71.784 514.632 69.544C518.792 67.304 523.528 66.184 528.84 66.184C535.688 66.184 541.448 68.072 546.12 71.848C550.792 75.56 553.8 80.776 555.144 87.496H535.176C534.024 83.976 531.784 82.216 528.456 82.216C526.088 82.216 524.2 83.208 522.792 85.192C521.448 87.112 520.776 89.96 520.776 93.736C520.776 97.512 521.448 100.392 522.792 102.376C524.2 104.36 526.088 105.352 528.456 105.352C531.848 105.352 534.088 103.592 535.176 100.072H555.144C553.8 106.728 550.792 111.944 546.12 115.72C541.448 119.496 535.688 121.384 528.84 121.384C523.528 121.384 518.792 120.264 514.632 118.024C510.536 115.784 507.336 112.584 505.032 108.424C502.728 104.264 501.576 99.368 501.576 93.736Z"/>
    <path d="M445.286 71.464C445.542 64.232 447.782 58.696 452.006 54.856C456.23 50.952 462.118 49 469.67 49C474.598 49 478.79 49.864 482.246 51.592C485.766 53.256 488.422 55.56 490.214 58.504C492.006 61.384 492.902 64.648 492.902 68.296C492.902 72.648 491.846 76.136 489.734 78.76C487.622 81.32 485.222 83.048 482.534 83.944V84.328C490.278 87.208 494.15 92.712 494.15 100.84C494.15 104.872 493.222 108.424 491.366 111.496C489.51 114.568 486.822 116.968 483.302 118.696C479.782 120.424 475.59 121.288 470.726 121.288C462.726 121.288 456.39 119.368 451.718 115.528C447.11 111.624 444.71 105.672 444.518 97.672H462.854C462.726 100.232 463.27 102.216 464.486 103.624C465.702 105.032 467.526 105.736 469.958 105.736C471.814 105.736 473.254 105.16 474.278 104.008C475.366 102.856 475.91 101.32 475.91 99.4C475.91 96.968 475.11 95.176 473.51 94.024C471.974 92.872 469.446 92.296 465.926 92.296H462.566V77.032H465.83C468.262 77.096 470.31 76.712 471.974 75.88C473.702 74.984 474.566 73.224 474.566 70.6C474.566 68.616 474.086 67.144 473.126 66.184C472.166 65.16 470.854 64.648 469.19 64.648C467.334 64.648 465.958 65.32 465.062 66.664C464.23 67.944 463.75 69.544 463.622 71.464H445.286Z"/>
    <path d="M437.424 104.68V120.712H429.264C415.504 120.712 408.624 113.896 408.624 100.264V82.504H402V66.856H408.624V53.8H427.536V66.856H437.328V82.504H427.536V100.552C427.536 102.024 427.856 103.08 428.496 103.72C429.2 104.36 430.352 104.68 431.952 104.68H437.424Z"/>
  </g>
</svg>